<svg width="59" height="59" viewBox="0 0 59 59" fill="none" xmlns="http://www.w3.org/2000/svg">
<path d="M0.35599 34.1582C2.47022 48.0351 13.505 58.0989 26.3597 58.9609C27.2759 59.0224 27.734 59.0531 27.9939 58.723C28.2538 58.3928 28.1329 57.9094 27.8911 56.9424L25.8421 48.7491C25.7131 48.2334 25.6486 47.9756 25.4813 47.8108C25.314 47.646 25.0469 47.5907 24.5127 47.4802C16.5362 45.8296 10.5214 38.4651 10.5214 29.6298C10.5214 19.5803 18.3029 11.4336 27.9018 11.4336C31.3978 11.4336 34.6527 12.5142 37.3784 14.3739C38.068 14.8443 38.4127 15.0795 38.7268 15.0187C39.0409 14.9578 39.2664 14.6321 39.7174 13.9807L44.3164 7.33831C44.7543 6.70591 44.9732 6.38971 44.9143 6.04048C44.8555 5.69124 44.5581 5.48086 43.9635 5.0601C38.2447 1.01387 31.102 -0.855366 23.7481 0.372699C8.3772 2.93956 -2.09579 18.0658 0.35599 34.1582Z" fill="url(#paint0_linear_46_170)"/>
<path d="M50.732 58.9807L34.5503 58.9807C33.193 58.9807 32.5143 58.9807 32.0225 58.598C31.5307 58.2152 31.3641 57.5573 31.0307 56.2416L22.4491 22.3667C21.924 20.2938 21.6614 19.2573 22.205 18.5573C22.7486 17.8572 23.8162 17.8549 25.9515 17.8503L25.9515 17.8503C28.4174 17.845 30.7765 17.8462 31.2383 17.8664C31.8532 17.8934 32.2724 18.3478 32.4879 18.7125C32.5124 18.754 32.5246 18.7747 32.5788 18.9149C32.6329 19.0552 32.6466 19.1215 32.6739 19.2542C34.6794 28.9917 38.6579 48.2572 38.9791 49.6075C39.3033 50.9709 40.1679 51.3685 40.5596 51.3969L45.8896 51.3969C46.0899 51.3969 46.1901 51.3969 46.3506 51.3679C46.5111 51.3388 46.5551 51.3223 46.6433 51.2893C48.0803 50.751 48.412 49.1297 48.4219 49.011C48.2434 45.9279 45.2755 43.077 42.8597 41.5721C41.869 40.9548 41.3736 40.6462 41.1612 40.3433C40.9488 40.0404 40.8545 39.5973 40.6661 38.7111L39.8148 34.7074C39.3108 32.3368 39.0588 31.1515 39.902 30.4506C40.7452 29.7496 41.7728 30.1758 43.8282 31.0283C48.1498 32.8208 52.3275 35.5192 53.6454 36.9452C55.4691 38.5926 59.032 44.1029 58.9996 50.7152C58.9672 57.3276 53.4744 58.9807 50.732 58.9807Z" fill="url(#paint1_linear_46_170)"/>
<defs>
<linearGradient id="paint0_linear_46_170" x1="3.40191e-10" y1="29.5" x2="53.3896" y2="29.4752" gradientUnits="userSpaceOnUse">
<stop stop-color="#00F5A0"/>
<stop offset="1" stop-color="#00D9F5"/>
</linearGradient>
<linearGradient id="paint1_linear_46_170" x1="0.972899" y1="37.4903" x2="51.6237" y2="38.327" gradientUnits="userSpaceOnUse">
<stop stop-color="#00F5A0"/>
<stop offset="1" stop-color="#00D9F5"/>
</linearGradient>
</defs>
</svg>
